# xmcd
#
# Track frame offsets:
#	183
#	20458
#	38990
#	58348
#	82578
#	108098
#	132475
#	154783
#	183540
#	200330
#	228070
#	251865
#	276753
#	291658
#	309025
#
# Disc length: 4383
#
# Revision: 3
# Processed by: cddbd v1.5.1PL0 Copyright (c) Steve Scherf et al.
# Submitted via: DiscPlay 4.0.4
# Normalized: r1:TDELIM( - ),TSWAP
#
DISCID=cc111d0f
DTITLE=Various Artist - The Best in Blues 2
DYEAR=1900
DGENRE=
TTITLE0=John Lee Hooker and Bonnie Raitt - I'm in the Mood
TTITLE1=Muskee - Brother Booze
TTITLE2=Robert Cray Band - Right Next Door
TTITLE3=Muddy Waters - Mannish Boy
TTITLE4=Jeff Healey Band - Blue Jeans Blues
TTITLE5=B. B. King - The Thrill is Gone
TTITLE6=Gary Moore - Midnight Blues
TTITLE7=Willie Dixon - I do the Job
TTITLE8=John Lee Hooker and Robert Cray - Baby Lee
TTITLE9=Albert Collins - Don't Mistake Kindness for Weakness
TTITLE10=John Mayall - The Sensitive Kind
TTITLE11=Blues Band - Leaving
TTITLE12=Joe Cocker - Shocked
TTITLE13=Bonnie Raitt - Thing Called Love
TTITLE14=Larry McCray - Frustrated Baby
EXTD=
EXTT0=
EXTT1=
EXTT2=
EXTT3=
EXTT4=
EXTT5=
EXTT6=
EXTT7=
EXTT8=
EXTT9=
EXTT10=
EXTT11=
EXTT12=
EXTT13=
EXTT14=
PLAYORDER=
